# xmcd
#
# Track frame offsets:
#	150
#	32618
#	64778
#	108994
#	139474
#	178548
#	221647
#
# Disc length: 3572 seconds
#
# Revision: 0
# Processed by: cddbd v1.5.2PL0 Copyright (c) Steve Scherf et al.
# Submitted via: EasyCDDAExtractor 2010.6.0.0
#
DISCID=640df207
DTITLE=The World Heritage - Travelling Silk Road
DYEAR=2012
DGENRE=Japan
TTITLE0=Xi-Ang
TTITLE1=Tongko
TTITLE2=Samarkand
TTITLE3=Theheran
TTITLE4=Bagdad
TTITLE5=Istanbul
TTITLE6=Rome
EXTD=
EXTT0=
EXTT1=
EXTT2=
EXTT3=
EXTT4=
EXTT5=
EXTT6=
PLAYORDER=
